<svg width="160" height="160" viewBox="0 0 160 160" fill="none" xmlns="http://www.w3.org/2000/svg">
  <rect width="160" height="160" rx="40" fill="white"/>
  <path d="M32 50V28H54" stroke="#F07A38" stroke-width="8" stroke-linecap="round" stroke-linejoin="round"/>
  <path d="M106 28H128V50" stroke="#8AC54B" stroke-width="8" stroke-linecap="round" stroke-linejoin="round"/>
  <path d="M32 110V132H54" stroke="#6FD2C7" stroke-width="8" stroke-linecap="round" stroke-linejoin="round"/>
  <path d="M106 132H128V110" stroke="#5CC9F5" stroke-width="8" stroke-linecap="round" stroke-linejoin="round"/>
  <path d="M61.442 101C52.8167 101 46.5467 95.97 44.5747 87.79L54.1087 84.664C55.3327 89.32 58.8327 92.038 63.9987 92.038C69.0287 92.038 72.1547 89.592 72.1547 85.888C72.1547 82.49 69.9467 80.858 62.5707 79.022C51.1847 76.168 46.8007 71.852 46.8007 63.774C46.8007 54.988 54.3127 48.752 64.7807 48.752C73.7367 48.752 80.7887 53 83.3027 60.716L73.9727 63.944C72.5107 59.526 69.4867 57.306 64.8827 57.306C60.2447 57.306 57.5267 59.446 57.5267 62.708C57.5267 65.698 59.8027 67.432 66.6507 69.098C79.1687 72.156 82.9827 76.404 82.9827 84.754C82.9827 94.356 74.8367 101 61.442 101Z" fill="#34479F"/>
  <path d="M114.617 49.84H124.355V85.786C124.355 95.66 118.493 101.442 108.607 101.442C100.519 101.442 94.4194 97.126 92.1074 90.21L100.399 87.152C101.623 90.754 104.003 92.718 107.471 92.718C111.923 92.718 114.617 90.05 114.617 85.514V49.84Z" fill="#F07A38"/>
</svg>
